<?xml version="1.0" encoding="UTF-8" standalone="no"?>
<svg
   xmlns:i="http://ns.adobe.com/AdobeIllustrator/10.0/"
   xmlns:a="http://ns.adobe.com/AdobeSVGViewerExtensions/3.0/"
   xmlns:dc="http://purl.org/dc/elements/1.1/"
   xmlns:cc="http://creativecommons.org/ns#"
   xmlns:rdf="http://www.w3.org/1999/02/22-rdf-syntax-ns#"
   xmlns:svg="http://www.w3.org/2000/svg"
   xmlns="http://www.w3.org/2000/svg"
   xmlns:xlink="http://www.w3.org/1999/xlink"
   xmlns:sodipodi="http://sodipodi.sourceforge.net/DTD/sodipodi-0.dtd"
   xmlns:inkscape="http://www.inkscape.org/namespaces/inkscape"
   sodipodi:docname="acceso.svg"
   inkscape:version="1.0 (1.0+r73+1)"
   width="210mm"
   height="297mm"
   viewBox="0 0 210 297"
   version="1.1"
   id="svg8">
  <defs
     id="defs2">
    <radialGradient
       r="17.067101"
       fy="7.4608998"
       fx="8.8794003"
       cy="7.4608998"
       cx="8.8794003"
       gradientUnits="userSpaceOnUse"
       id="radialGradient10096"
       xlink:href="#XMLID_2_-5"
       inkscape:collect="always" />
    <radialGradient
       r="17.067101"
       fy="7.4608998"
       fx="8.8794003"
       cy="7.4608998"
       cx="8.8794003"
       gradientUnits="userSpaceOnUse"
       id="radialGradient10114"
       xlink:href="#XMLID_2_-5"
       inkscape:collect="always" />
    <radialGradient
       r="17.067101"
       fy="7.4608998"
       fx="8.8794003"
       cy="7.4608998"
       cx="8.8794003"
       gradientUnits="userSpaceOnUse"
       id="radialGradient11058"
       xlink:href="#XMLID_2_-5"
       inkscape:collect="always" />
    <g
       id="g4737">
      <symbol
         id="symbol7311"
         overflow="visible">
        <path
           id="path9382"
           d=""
           style="stroke:none;" />
      </symbol>
      <symbol
         id="symbol187"
         overflow="visible">
        <path
           id="path8018"
           d="M 6.265625 -5.671875 C 6.75 -6.453125 7.171875 -6.484375 7.53125 -6.5 C 7.65625 -6.515625 7.671875 -6.671875 7.671875 -6.6875 C 7.671875 -6.765625 7.609375 -6.8125 7.53125 -6.8125 C 7.28125 -6.8125 6.984375 -6.78125 6.71875 -6.78125 C 6.390625 -6.78125 6.046875 -6.8125 5.734375 -6.8125 C 5.671875 -6.8125 5.546875 -6.8125 5.546875 -6.625 C 5.546875 -6.515625 5.625 -6.5 5.703125 -6.5 C 5.96875 -6.484375 6.15625 -6.375 6.15625 -6.171875 C 6.15625 -6.015625 6.015625 -5.796875 6.015625 -5.796875 L 2.953125 -0.921875 L 2.265625 -6.203125 C 2.265625 -6.375 2.5 -6.5 2.953125 -6.5 C 3.09375 -6.5 3.203125 -6.5 3.203125 -6.703125 C 3.203125 -6.78125 3.125 -6.8125 3.078125 -6.8125 C 2.671875 -6.8125 2.25 -6.78125 1.828125 -6.78125 C 1.65625 -6.78125 1.46875 -6.78125 1.28125 -6.78125 C 1.109375 -6.78125 0.921875 -6.8125 0.75 -6.8125 C 0.671875 -6.8125 0.5625 -6.8125 0.5625 -6.625 C 0.5625 -6.5 0.640625 -6.5 0.8125 -6.5 C 1.359375 -6.5 1.375 -6.40625 1.40625 -6.15625 L 2.1875 -0.015625 C 2.21875 0.1875 2.265625 0.21875 2.390625 0.21875 C 2.546875 0.21875 2.59375 0.171875 2.671875 0.046875 Z M 6.265625 -5.671875 "
           style="stroke:none;" />
      </symbol>
      <symbol
         id="symbol9570"
         overflow="visible">
        <path
           id="path8225"
           d="M 2.828125 -6.234375 C 2.828125 -6.4375 2.6875 -6.59375 2.46875 -6.59375 C 2.1875 -6.59375 1.921875 -6.328125 1.921875 -6.0625 C 1.921875 -5.875 2.0625 -5.703125 2.296875 -5.703125 C 2.53125 -5.703125 2.828125 -5.9375 2.828125 -6.234375 Z M 2.078125 -2.484375 C 2.1875 -2.765625 2.1875 -2.796875 2.296875 -3.0625 C 2.375 -3.265625 2.421875 -3.40625 2.421875 -3.59375 C 2.421875 -4.03125 2.109375 -4.40625 1.609375 -4.40625 C 0.671875 -4.40625 0.296875 -2.953125 0.296875 -2.875 C 0.296875 -2.765625 0.390625 -2.765625 0.40625 -2.765625 C 0.515625 -2.765625 0.515625 -2.796875 0.5625 -2.953125 C 0.84375 -3.890625 1.234375 -4.1875 1.578125 -4.1875 C 1.65625 -4.1875 1.828125 -4.1875 1.828125 -3.875 C 1.828125 -3.65625 1.75 -3.453125 1.71875 -3.34375 C 1.640625 -3.09375 1.1875 -1.9375 1.03125 -1.5 C 0.921875 -1.25 0.796875 -0.921875 0.796875 -0.703125 C 0.796875 -0.234375 1.140625 0.109375 1.609375 0.109375 C 2.546875 0.109375 2.921875 -1.328125 2.921875 -1.421875 C 2.921875 -1.53125 2.828125 -1.53125 2.796875 -1.53125 C 2.703125 -1.53125 2.703125 -1.5 2.65625 -1.34375 C 2.46875 -0.71875 2.140625 -0.109375 1.640625 -0.109375 C 1.46875 -0.109375 1.390625 -0.203125 1.390625 -0.4375 C 1.390625 -0.6875 1.453125 -0.828125 1.6875 -1.4375 Z M 2.078125 -2.484375 "
           style="stroke:none;" />
      </symbol>
      <symbol
         id="symbol7401"
         overflow="visible">
        <path
           id="path4743"
           d="M 4.671875 -2.71875 C 4.671875 -3.765625 3.984375 -4.40625 3.078125 -4.40625 C 1.75 -4.40625 0.40625 -2.984375 0.40625 -1.578125 C 0.40625 -0.59375 1.078125 0.109375 2 0.109375 C 3.328125 0.109375 4.671875 -1.265625 4.671875 -2.71875 Z M 2.015625 -0.109375 C 1.578125 -0.109375 1.140625 -0.421875 1.140625 -1.203125 C 1.140625 -1.6875 1.40625 -2.765625 1.71875 -3.265625 C 2.21875 -4.03125 2.796875 -4.1875 3.078125 -4.1875 C 3.65625 -4.1875 3.953125 -3.703125 3.953125 -3.109375 C 3.953125 -2.71875 3.75 -1.671875 3.375 -1.03125 C 3.015625 -0.453125 2.46875 -0.109375 2.015625 -0.109375 Z M 2.015625 -0.109375 "
           style="stroke:none;" />
      </symbol>
      <symbol
         id="symbol4461"
         overflow="visible">
        <path
           id="path3557"
           d="M 2.578125 -6.8125 C 2.578125 -6.8125 2.578125 -6.921875 2.4375 -6.921875 C 2.21875 -6.921875 1.484375 -6.84375 1.21875 -6.8125 C 1.140625 -6.8125 1.03125 -6.796875 1.03125 -6.609375 C 1.03125 -6.5 1.140625 -6.5 1.28125 -6.5 C 1.765625 -6.5 1.78125 -6.40625 1.78125 -6.328125 L 1.75 -6.125 L 0.484375 -1.140625 C 0.453125 -1.03125 0.4375 -0.96875 0.4375 -0.8125 C 0.4375 -0.234375 0.875 0.109375 1.34375 0.109375 C 1.671875 0.109375 1.921875 -0.09375 2.09375 -0.453125 C 2.265625 -0.828125 2.390625 -1.40625 2.390625 -1.421875 C 2.390625 -1.53125 2.296875 -1.53125 2.265625 -1.53125 C 2.171875 -1.53125 2.15625 -1.484375 2.140625 -1.34375 C 1.96875 -0.703125 1.78125 -0.109375 1.375 -0.109375 C 1.078125 -0.109375 1.078125 -0.421875 1.078125 -0.5625 C 1.078125 -0.8125 1.09375 -0.859375 1.140625 -1.046875 Z M 2.578125 -6.8125 "
           style="stroke:none;" />
      </symbol>
      <symbol
         id="symbol2241"
         overflow="visible">
        <path
           id="path5164"
           d="M 1.859375 -2.296875 C 2.15625 -2.296875 2.890625 -2.328125 3.390625 -2.53125 C 4.09375 -2.828125 4.140625 -3.421875 4.140625 -3.5625 C 4.140625 -4 3.765625 -4.40625 3.078125 -4.40625 C 1.96875 -4.40625 0.453125 -3.4375 0.453125 -1.6875 C 0.453125 -0.671875 1.046875 0.109375 2.03125 0.109375 C 3.453125 0.109375 4.28125 -0.953125 4.28125 -1.0625 C 4.28125 -1.125 4.234375 -1.203125 4.171875 -1.203125 C 4.109375 -1.203125 4.09375 -1.171875 4.03125 -1.09375 C 3.25 -0.109375 2.15625 -0.109375 2.046875 -0.109375 C 1.265625 -0.109375 1.171875 -0.953125 1.171875 -1.265625 C 1.171875 -1.390625 1.1875 -1.6875 1.328125 -2.296875 Z M 1.390625 -2.515625 C 1.78125 -4.03125 2.8125 -4.1875 3.078125 -4.1875 C 3.53125 -4.1875 3.8125 -3.890625 3.8125 -3.5625 C 3.8125 -2.515625 2.21875 -2.515625 1.796875 -2.515625 Z M 1.390625 -2.515625 "
           style="stroke:none;" />
      </symbol>
      <symbol
         id="symbol1310"
         overflow="visible">
        <path
           id="path1071"
           d="M 2.046875 -3.984375 L 2.984375 -3.984375 C 3.1875 -3.984375 3.296875 -3.984375 3.296875 -4.1875 C 3.296875 -4.296875 3.1875 -4.296875 3.015625 -4.296875 L 2.140625 -4.296875 C 2.5 -5.71875 2.546875 -5.90625 2.546875 -5.96875 C 2.546875 -6.140625 2.421875 -6.234375 2.25 -6.234375 C 2.21875 -6.234375 1.9375 -6.234375 1.859375 -5.875 L 1.46875 -4.296875 L 0.53125 -4.296875 C 0.328125 -4.296875 0.234375 -4.296875 0.234375 -4.109375 C 0.234375 -3.984375 0.3125 -3.984375 0.515625 -3.984375 L 1.390625 -3.984375 C 0.671875 -1.15625 0.625 -0.984375 0.625 -0.8125 C 0.625 -0.265625 1 0.109375 1.546875 0.109375 C 2.5625 0.109375 3.125 -1.34375 3.125 -1.421875 C 3.125 -1.53125 3.046875 -1.53125 3.015625 -1.53125 C 2.921875 -1.53125 2.90625 -1.5 2.859375 -1.390625 C 2.4375 -0.34375 1.90625 -0.109375 1.5625 -0.109375 C 1.359375 -0.109375 1.25 -0.234375 1.25 -0.5625 C 1.25 -0.8125 1.28125 -0.875 1.3125 -1.046875 Z M 2.046875 -3.984375 "
           style="stroke:none;" />
      </symbol>
      <symbol
         id="symbol3706"
         overflow="visible">
        <path
           id="path6882"
           d="M 3.71875 -3.765625 C 3.53125 -4.140625 3.25 -4.40625 2.796875 -4.40625 C 1.640625 -4.40625 0.40625 -2.9375 0.40625 -1.484375 C 0.40625 -0.546875 0.953125 0.109375 1.71875 0.109375 C 1.921875 0.109375 2.421875 0.0625 3.015625 -0.640625 C 3.09375 -0.21875 3.453125 0.109375 3.921875 0.109375 C 4.28125 0.109375 4.5 -0.125 4.671875 -0.4375 C 4.828125 -0.796875 4.96875 -1.40625 4.96875 -1.421875 C 4.96875 -1.53125 4.875 -1.53125 4.84375 -1.53125 C 4.75 -1.53125 4.734375 -1.484375 4.703125 -1.34375 C 4.53125 -0.703125 4.359375 -0.109375 3.953125 -0.109375 C 3.671875 -0.109375 3.65625 -0.375 3.65625 -0.5625 C 3.65625 -0.78125 3.671875 -0.875 3.78125 -1.3125 C 3.890625 -1.71875 3.90625 -1.828125 4 -2.203125 L 4.359375 -3.59375 C 4.421875 -3.875 4.421875 -3.890625 4.421875 -3.9375 C 4.421875 -4.109375 4.3125 -4.203125 4.140625 -4.203125 C 3.890625 -4.203125 3.75 -3.984375 3.71875 -3.765625 Z M 3.078125 -1.1875 C 3.015625 -1 3.015625 -0.984375 2.875 -0.8125 C 2.4375 -0.265625 2.03125 -0.109375 1.75 -0.109375 C 1.25 -0.109375 1.109375 -0.65625 1.109375 -1.046875 C 1.109375 -1.546875 1.421875 -2.765625 1.65625 -3.234375 C 1.96875 -3.8125 2.40625 -4.1875 2.8125 -4.1875 C 3.453125 -4.1875 3.59375 -3.375 3.59375 -3.3125 C 3.59375 -3.25 3.578125 -3.1875 3.5625 -3.140625 Z M 3.078125 -1.1875 "
           style="stroke:none;" />
      </symbol>
    </g>
    <g
       id="g1194">
      <symbol
         id="symbol4349"
         overflow="visible">
        <path
           id="path5243"
           d=""
           style="stroke:none;" />
      </symbol>
      <symbol
         id="symbol8611"
         overflow="visible">
        <path
           id="path6175"
           d="M 3.734375 -6.03125 C 3.8125 -6.390625 3.84375 -6.5 4.78125 -6.5 C 5.078125 -6.5 5.15625 -6.5 5.15625 -6.6875 C 5.15625 -6.8125 5.046875 -6.8125 5 -6.8125 C 4.671875 -6.8125 3.859375 -6.78125 3.53125 -6.78125 C 3.234375 -6.78125 2.5 -6.8125 2.203125 -6.8125 C 2.140625 -6.8125 2.015625 -6.8125 2.015625 -6.609375 C 2.015625 -6.5 2.109375 -6.5 2.296875 -6.5 C 2.3125 -6.5 2.5 -6.5 2.671875 -6.484375 C 2.84375 -6.453125 2.9375 -6.453125 2.9375 -6.3125 C 2.9375 -6.28125 2.9375 -6.25 2.90625 -6.125 L 1.5625 -0.78125 C 1.46875 -0.390625 1.453125 -0.3125 0.65625 -0.3125 C 0.484375 -0.3125 0.390625 -0.3125 0.390625 -0.109375 C 0.390625 0 0.484375 0 0.65625 0 L 5.28125 0 C 5.515625 0 5.515625 0 5.578125 -0.171875 L 6.375 -2.328125 C 6.40625 -2.4375 6.40625 -2.453125 6.40625 -2.46875 C 6.40625 -2.5 6.375 -2.578125 6.296875 -2.578125 C 6.203125 -2.578125 6.1875 -2.515625 6.125 -2.359375 C 5.78125 -1.453125 5.34375 -0.3125 3.625 -0.3125 L 2.6875 -0.3125 C 2.546875 -0.3125 2.515625 -0.3125 2.46875 -0.3125 C 2.359375 -0.328125 2.328125 -0.34375 2.328125 -0.421875 C 2.328125 -0.453125 2.328125 -0.46875 2.375 -0.640625 Z M 3.734375 -6.03125 "
           style="stroke:none;" />
      </symbol>
      <symbol
         id="symbol6891"
         overflow="visible">
        <path
           id="path3613"
           d="M 3.71875 -3.765625 C 3.53125 -4.140625 3.25 -4.40625 2.796875 -4.40625 C 1.640625 -4.40625 0.40625 -2.9375 0.40625 -1.484375 C 0.40625 -0.546875 0.953125 0.109375 1.71875 0.109375 C 1.921875 0.109375 2.421875 0.0625 3.015625 -0.640625 C 3.09375 -0.21875 3.453125 0.109375 3.921875 0.109375 C 4.28125 0.109375 4.5 -0.125 4.671875 -0.4375 C 4.828125 -0.796875 4.96875 -1.40625 4.96875 -1.421875 C 4.96875 -1.53125 4.875 -1.53125 4.84375 -1.53125 C 4.75 -1.53125 4.734375 -1.484375 4.703125 -1.34375 C 4.53125 -0.703125 4.359375 -0.109375 3.953125 -0.109375 C 3.671875 -0.109375 3.65625 -0.375 3.65625 -0.5625 C 3.65625 -0.78125 3.671875 -0.875 3.78125 -1.3125 C 3.890625 -1.71875 3.90625 -1.828125 4 -2.203125 L 4.359375 -3.59375 C 4.421875 -3.875 4.421875 -3.890625 4.421875 -3.9375 C 4.421875 -4.109375 4.3125 -4.203125 4.140625 -4.203125 C 3.890625 -4.203125 3.75 -3.984375 3.71875 -3.765625 Z M 3.078125 -1.1875 C 3.015625 -1 3.015625 -0.984375 2.875 -0.8125 C 2.4375 -0.265625 2.03125 -0.109375 1.75 -0.109375 C 1.25 -0.109375 1.109375 -0.65625 1.109375 -1.046875 C 1.109375 -1.546875 1.421875 -2.765625 1.65625 -3.234375 C 1.96875 -3.8125 2.40625 -4.1875 2.8125 -4.1875 C 3.453125 -4.1875 3.59375 -3.375 3.59375 -3.3125 C 3.59375 -3.25 3.578125 -3.1875 3.5625 -3.140625 Z M 3.078125 -1.1875 "
           style="stroke:none;" />
      </symbol>
      <symbol
         id="symbol2496"
         overflow="visible">
        <path
           id="path6526"
           d="M 3.890625 -3.734375 C 3.625 -3.71875 3.421875 -3.5 3.421875 -3.28125 C 3.421875 -3.140625 3.515625 -2.984375 3.734375 -2.984375 C 3.953125 -2.984375 4.1875 -3.15625 4.1875 -3.546875 C 4.1875 -4 3.765625 -4.40625 3 -4.40625 C 1.6875 -4.40625 1.3125 -3.390625 1.3125 -2.953125 C 1.3125 -2.171875 2.046875 -2.03125 2.34375 -1.96875 C 2.859375 -1.859375 3.375 -1.75 3.375 -1.203125 C 3.375 -0.953125 3.15625 -0.109375 1.953125 -0.109375 C 1.8125 -0.109375 1.046875 -0.109375 0.8125 -0.640625 C 1.203125 -0.59375 1.453125 -0.890625 1.453125 -1.171875 C 1.453125 -1.390625 1.28125 -1.515625 1.078125 -1.515625 C 0.8125 -1.515625 0.515625 -1.3125 0.515625 -0.859375 C 0.515625 -0.296875 1.09375 0.109375 1.9375 0.109375 C 3.5625 0.109375 3.953125 -1.09375 3.953125 -1.546875 C 3.953125 -1.90625 3.765625 -2.15625 3.640625 -2.265625 C 3.375 -2.546875 3.078125 -2.609375 2.640625 -2.6875 C 2.28125 -2.765625 1.890625 -2.84375 1.890625 -3.296875 C 1.890625 -3.578125 2.125 -4.1875 3 -4.1875 C 3.25 -4.1875 3.75 -4.109375 3.890625 -3.734375 Z M 3.890625 -3.734375 "
           style="stroke:none;" />
      </symbol>
      <symbol
         id="symbol8673"
         overflow="visible">
        <path
           id="path1991"
           d="M 1.859375 -2.296875 C 2.15625 -2.296875 2.890625 -2.328125 3.390625 -2.53125 C 4.09375 -2.828125 4.140625 -3.421875 4.140625 -3.5625 C 4.140625 -4 3.765625 -4.40625 3.078125 -4.40625 C 1.96875 -4.40625 0.453125 -3.4375 0.453125 -1.6875 C 0.453125 -0.671875 1.046875 0.109375 2.03125 0.109375 C 3.453125 0.109375 4.28125 -0.953125 4.28125 -1.0625 C 4.28125 -1.125 4.234375 -1.203125 4.171875 -1.203125 C 4.109375 -1.203125 4.09375 -1.171875 4.03125 -1.09375 C 3.25 -0.109375 2.15625 -0.109375 2.046875 -0.109375 C 1.265625 -0.109375 1.171875 -0.953125 1.171875 -1.265625 C 1.171875 -1.390625 1.1875 -1.6875 1.328125 -2.296875 Z M 1.390625 -2.515625 C 1.78125 -4.03125 2.8125 -4.1875 3.078125 -4.1875 C 3.53125 -4.1875 3.8125 -3.890625 3.8125 -3.5625 C 3.8125 -2.515625 2.21875 -2.515625 1.796875 -2.515625 Z M 1.390625 -2.515625 "
           style="stroke:none;" />
      </symbol>
      <symbol
         id="symbol8531"
         overflow="visible">
        <path
           id="path3002"
           d="M 0.875 -0.59375 C 0.84375 -0.4375 0.78125 -0.203125 0.78125 -0.15625 C 0.78125 0.015625 0.921875 0.109375 1.078125 0.109375 C 1.203125 0.109375 1.375 0.03125 1.453125 -0.171875 C 1.46875 -0.203125 1.796875 -1.5625 1.84375 -1.75 C 1.921875 -2.078125 2.109375 -2.765625 2.15625 -3.046875 C 2.203125 -3.171875 2.484375 -3.640625 2.71875 -3.859375 C 2.796875 -3.921875 3.09375 -4.1875 3.515625 -4.1875 C 3.78125 -4.1875 3.921875 -4.0625 3.9375 -4.0625 C 3.640625 -4.015625 3.421875 -3.78125 3.421875 -3.515625 C 3.421875 -3.359375 3.53125 -3.171875 3.796875 -3.171875 C 4.0625 -3.171875 4.34375 -3.40625 4.34375 -3.765625 C 4.34375 -4.109375 4.03125 -4.40625 3.515625 -4.40625 C 2.875 -4.40625 2.4375 -3.921875 2.25 -3.640625 C 2.15625 -4.09375 1.796875 -4.40625 1.328125 -4.40625 C 0.875 -4.40625 0.6875 -4.015625 0.59375 -3.84375 C 0.421875 -3.5 0.296875 -2.90625 0.296875 -2.875 C 0.296875 -2.765625 0.390625 -2.765625 0.40625 -2.765625 C 0.515625 -2.765625 0.515625 -2.78125 0.578125 -3 C 0.75 -3.703125 0.953125 -4.1875 1.3125 -4.1875 C 1.46875 -4.1875 1.609375 -4.109375 1.609375 -3.734375 C 1.609375 -3.515625 1.578125 -3.40625 1.453125 -2.890625 Z M 0.875 -0.59375 "
           style="stroke:none;" />
      </symbol>
    </g>
    <g
       id="g483">
      <symbol
         id="symbol8705"
         overflow="visible">
        <path
           id="path4722"
           d=""
           style="stroke:none;" />
      </symbol>
      <symbol
         id="symbol2939"
         overflow="visible">
        <path
           id="path6133"
           d="M 1.578125 -0.78125 C 1.484375 -0.390625 1.46875 -0.3125 0.671875 -0.3125 C 0.515625 -0.3125 0.40625 -0.3125 0.40625 -0.125 C 0.40625 0 0.484375 0 0.671875 0 L 3.984375 0 C 6.046875 0 8.015625 -2.109375 8.015625 -4.28125 C 8.015625 -5.6875 7.171875 -6.8125 5.671875 -6.8125 L 2.328125 -6.8125 C 2.140625 -6.8125 2.03125 -6.8125 2.03125 -6.625 C 2.03125 -6.5 2.109375 -6.5 2.3125 -6.5 C 2.4375 -6.5 2.625 -6.484375 2.734375 -6.484375 C 2.90625 -6.453125 2.953125 -6.4375 2.953125 -6.3125 C 2.953125 -6.28125 2.953125 -6.25 2.921875 -6.125 Z M 3.734375 -6.125 C 3.828125 -6.46875 3.84375 -6.5 4.28125 -6.5 L 5.34375 -6.5 C 6.3125 -6.5 7.140625 -5.96875 7.140625 -4.65625 C 7.140625 -4.171875 6.953125 -2.53125 6.09375 -1.4375 C 5.8125 -1.0625 5.03125 -0.3125 3.796875 -0.3125 L 2.671875 -0.3125 C 2.53125 -0.3125 2.515625 -0.3125 2.453125 -0.3125 C 2.359375 -0.328125 2.328125 -0.34375 2.328125 -0.421875 C 2.328125 -0.453125 2.328125 -0.46875 2.375 -0.640625 Z M 3.734375 -6.125 "
           style="stroke:none;" />
      </symbol>
      <symbol
         id="symbol585"
         overflow="visible">
        <path
           id="path4724"
           d=""
           style="stroke:none;" />
      </symbol>
      <symbol
         id="symbol7584"
         overflow="visible">
        <path
           id="path9247"
           d="M 2.328125 -4.4375 C 2.328125 -4.625 2.328125 -4.625 2.125 -4.625 C 1.671875 -4.1875 1.046875 -4.1875 0.765625 -4.1875 L 0.765625 -3.9375 C 0.921875 -3.9375 1.390625 -3.9375 1.765625 -4.125 L 1.765625 -0.578125 C 1.765625 -0.34375 1.765625 -0.25 1.078125 -0.25 L 0.8125 -0.25 L 0.8125 0 C 0.9375 0 1.796875 -0.03125 2.046875 -0.03125 C 2.265625 -0.03125 3.140625 0 3.296875 0 L 3.296875 -0.25 L 3.03125 -0.25 C 2.328125 -0.25 2.328125 -0.34375 2.328125 -0.578125 Z M 2.328125 -4.4375 "
           style="stroke:none;" />
      </symbol>
    </g>
    <g
       id="g2558">
      <symbol
         id="symbol8438"
         overflow="visible">
        <path
           id="path5046"
           d=""
           style="stroke:none;" />
      </symbol>
      <symbol
         id="symbol4116"
         overflow="visible">
        <path
           id="path6436"
           d="M 1.578125 -0.78125 C 1.484375 -0.390625 1.46875 -0.3125 0.671875 -0.3125 C 0.515625 -0.3125 0.40625 -0.3125 0.40625 -0.125 C 0.40625 0 0.484375 0 0.671875 0 L 3.984375 0 C 6.046875 0 8.015625 -2.109375 8.015625 -4.28125 C 8.015625 -5.6875 7.171875 -6.8125 5.671875 -6.8125 L 2.328125 -6.8125 C 2.140625 -6.8125 2.03125 -6.8125 2.03125 -6.625 C 2.03125 -6.5 2.109375 -6.5 2.3125 -6.5 C 2.4375 -6.5 2.625 -6.484375 2.734375 -6.484375 C 2.90625 -6.453125 2.953125 -6.4375 2.953125 -6.3125 C 2.953125 -6.28125 2.953125 -6.25 2.921875 -6.125 Z M 3.734375 -6.125 C 3.828125 -6.46875 3.84375 -6.5 4.28125 -6.5 L 5.34375 -6.5 C 6.3125 -6.5 7.140625 -5.96875 7.140625 -4.65625 C 7.140625 -4.171875 6.953125 -2.53125 6.09375 -1.4375 C 5.8125 -1.0625 5.03125 -0.3125 3.796875 -0.3125 L 2.671875 -0.3125 C 2.53125 -0.3125 2.515625 -0.3125 2.453125 -0.3125 C 2.359375 -0.328125 2.328125 -0.34375 2.328125 -0.421875 C 2.328125 -0.453125 2.328125 -0.46875 2.375 -0.640625 Z M 3.734375 -6.125 "
           style="stroke:none;" />
      </symbol>
      <symbol
         id="symbol7134"
         overflow="visible">
        <path
           id="path6728"
           d=""
           style="stroke:none;" />
      </symbol>
      <symbol
         id="symbol270"
         overflow="visible">
        <path
           id="path9356"
           d="M 3.515625 -1.265625 L 3.28125 -1.265625 C 3.265625 -1.109375 3.1875 -0.703125 3.09375 -0.640625 C 3.046875 -0.59375 2.515625 -0.59375 2.40625 -0.59375 L 1.125 -0.59375 C 1.859375 -1.234375 2.109375 -1.4375 2.515625 -1.765625 C 3.03125 -2.171875 3.515625 -2.609375 3.515625 -3.265625 C 3.515625 -4.109375 2.78125 -4.625 1.890625 -4.625 C 1.03125 -4.625 0.4375 -4.015625 0.4375 -3.375 C 0.4375 -3.03125 0.734375 -2.984375 0.8125 -2.984375 C 0.96875 -2.984375 1.171875 -3.109375 1.171875 -3.359375 C 1.171875 -3.484375 1.125 -3.734375 0.765625 -3.734375 C 0.984375 -4.21875 1.453125 -4.375 1.78125 -4.375 C 2.484375 -4.375 2.84375 -3.828125 2.84375 -3.265625 C 2.84375 -2.65625 2.40625 -2.1875 2.1875 -1.9375 L 0.515625 -0.265625 C 0.4375 -0.203125 0.4375 -0.1875 0.4375 0 L 3.3125 0 Z M 3.515625 -1.265625 "
           style="stroke:none;" />
      </symbol>
    </g>
    <g
       id="g160">
      <symbol
         id="symbol7415"
         overflow="visible">
        <path
           id="path1700"
           d=""
           style="stroke:none;" />
      </symbol>
      <symbol
         id="symbol1568"
         overflow="visible">
        <path
           id="path8731"
           d="M 1.578125 -0.78125 C 1.484375 -0.390625 1.46875 -0.3125 0.671875 -0.3125 C 0.515625 -0.3125 0.40625 -0.3125 0.40625 -0.125 C 0.40625 0 0.484375 0 0.671875 0 L 3.984375 0 C 6.046875 0 8.015625 -2.109375 8.015625 -4.28125 C 8.015625 -5.6875 7.171875 -6.8125 5.671875 -6.8125 L 2.328125 -6.8125 C 2.140625 -6.8125 2.03125 -6.8125 2.03125 -6.625 C 2.03125 -6.5 2.109375 -6.5 2.3125 -6.5 C 2.4375 -6.5 2.625 -6.484375 2.734375 -6.484375 C 2.90625 -6.453125 2.953125 -6.4375 2.953125 -6.3125 C 2.953125 -6.28125 2.953125 -6.25 2.921875 -6.125 Z M 3.734375 -6.125 C 3.828125 -6.46875 3.84375 -6.5 4.28125 -6.5 L 5.34375 -6.5 C 6.3125 -6.5 7.140625 -5.96875 7.140625 -4.65625 C 7.140625 -4.171875 6.953125 -2.53125 6.09375 -1.4375 C 5.8125 -1.0625 5.03125 -0.3125 3.796875 -0.3125 L 2.671875 -0.3125 C 2.53125 -0.3125 2.515625 -0.3125 2.453125 -0.3125 C 2.359375 -0.328125 2.328125 -0.34375 2.328125 -0.421875 C 2.328125 -0.453125 2.328125 -0.46875 2.375 -0.640625 Z M 3.734375 -6.125 "
           style="stroke:none;" />
      </symbol>
      <symbol
         id="symbol9893"
         overflow="visible">
        <path
           id="path4759"
           d=""
           style="stroke:none;" />
      </symbol>
      <symbol
         id="symbol2657"
         overflow="visible">
        <path
           id="path7432"
           d="M 2.015625 -3.296875 C 2.078125 -3.40625 2.078125 -3.46875 2.078125 -3.515625 C 2.078125 -3.734375 1.890625 -3.890625 1.671875 -3.890625 C 1.40625 -3.890625 1.328125 -3.671875 1.296875 -3.5625 L 0.375 -0.546875 C 0.359375 -0.53125 0.328125 -0.453125 0.328125 -0.4375 C 0.328125 -0.359375 0.546875 -0.28125 0.609375 -0.28125 C 0.65625 -0.28125 0.65625 -0.296875 0.703125 -0.40625 Z M 2.015625 -3.296875 "
           style="stroke:none;" />
      </symbol>
      <symbol
         id="symbol2106"
         overflow="visible">
        <path
           id="path4090"
           d=""
           style="stroke:none;" />
      </symbol>
      <symbol
         id="symbol1717"
         overflow="visible">
        <path
           id="path30"
           d="M 3.515625 -1.265625 L 3.28125 -1.265625 C 3.265625 -1.109375 3.1875 -0.703125 3.09375 -0.640625 C 3.046875 -0.59375 2.515625 -0.59375 2.40625 -0.59375 L 1.125 -0.59375 C 1.859375 -1.234375 2.109375 -1.4375 2.515625 -1.765625 C 3.03125 -2.171875 3.515625 -2.609375 3.515625 -3.265625 C 3.515625 -4.109375 2.78125 -4.625 1.890625 -4.625 C 1.03125 -4.625 0.4375 -4.015625 0.4375 -3.375 C 0.4375 -3.03125 0.734375 -2.984375 0.8125 -2.984375 C 0.96875 -2.984375 1.171875 -3.109375 1.171875 -3.359375 C 1.171875 -3.484375 1.125 -3.734375 0.765625 -3.734375 C 0.984375 -4.21875 1.453125 -4.375 1.78125 -4.375 C 2.484375 -4.375 2.84375 -3.828125 2.84375 -3.265625 C 2.84375 -2.65625 2.40625 -2.1875 2.1875 -1.9375 L 0.515625 -0.265625 C 0.4375 -0.203125 0.4375 -0.1875 0.4375 0 L 3.3125 0 Z M 3.515625 -1.265625 "
           style="stroke:none;" />
      </symbol>
    </g>
    <g
       id="g9789">
      <symbol
         id="symbol2977"
         overflow="visible">
        <path
           id="path5719"
           d=""
           style="stroke:none;" />
      </symbol>
      <symbol
         id="symbol4829"
         overflow="visible">
        <path
           id="path89"
           d="M 1.59375 -0.78125 C 1.5 -0.390625 1.46875 -0.3125 0.6875 -0.3125 C 0.515625 -0.3125 0.421875 -0.3125 0.421875 -0.109375 C 0.421875 0 0.515625 0 0.6875 0 L 4.25 0 C 5.828125 0 7 -1.171875 7 -2.15625 C 7 -2.875 6.421875 -3.453125 5.453125 -3.5625 C 6.484375 -3.75 7.53125 -4.484375 7.53125 -5.4375 C 7.53125 -6.171875 6.875 -6.8125 5.6875 -6.8125 L 2.328125 -6.8125 C 2.140625 -6.8125 2.046875 -6.8125 2.046875 -6.609375 C 2.046875 -6.5 2.140625 -6.5 2.328125 -6.5 C 2.34375 -6.5 2.53125 -6.5 2.703125 -6.484375 C 2.875 -6.453125 2.96875 -6.453125 2.96875 -6.3125 C 2.96875 -6.28125 2.953125 -6.25 2.9375 -6.125 Z M 3.09375 -3.65625 L 3.71875 -6.125 C 3.8125 -6.46875 3.828125 -6.5 4.25 -6.5 L 5.546875 -6.5 C 6.421875 -6.5 6.625 -5.90625 6.625 -5.46875 C 6.625 -4.59375 5.765625 -3.65625 4.5625 -3.65625 Z M 2.65625 -0.3125 C 2.515625 -0.3125 2.5 -0.3125 2.4375 -0.3125 C 2.328125 -0.328125 2.296875 -0.34375 2.296875 -0.421875 C 2.296875 -0.453125 2.296875 -0.46875 2.359375 -0.640625 L 3.046875 -3.421875 L 4.921875 -3.421875 C 5.875 -3.421875 6.078125 -2.6875 6.078125 -2.265625 C 6.078125 -1.28125 5.1875 -0.3125 4 -0.3125 Z M 2.65625 -0.3125 "
           style="stroke:none;" />
      </symbol>
      <symbol
         id="symbol7893"
         overflow="visible">
        <path
           id="path251"
           d="M 6.4375 -6.921875 C 6.4375 -6.953125 6.40625 -7.03125 6.3125 -7.03125 C 6.265625 -7.03125 6.265625 -7.015625 6.140625 -6.875 L 5.65625 -6.3125 C 5.40625 -6.78125 4.890625 -7.03125 4.234375 -7.03125 C 2.96875 -7.03125 1.78125 -5.875 1.78125 -4.671875 C 1.78125 -3.875 2.296875 -3.40625 2.8125 -3.265625 L 3.875 -2.984375 C 4.25 -2.890625 4.796875 -2.734375 4.796875 -1.921875 C 4.796875 -1.03125 3.984375 -0.09375 3 -0.09375 C 2.359375 -0.09375 1.25 -0.3125 1.25 -1.546875 C 1.25 -1.78125 1.3125 -2.03125 1.3125 -2.078125 C 1.328125 -2.125 1.328125 -2.140625 1.328125 -2.15625 C 1.328125 -2.25 1.265625 -2.265625 1.21875 -2.265625 C 1.171875 -2.265625 1.140625 -2.25 1.109375 -2.21875 C 1.078125 -2.1875 0.515625 0.09375 0.515625 0.125 C 0.515625 0.171875 0.5625 0.21875 0.625 0.21875 C 0.671875 0.21875 0.6875 0.203125 0.8125 0.0625 L 1.296875 -0.5 C 1.71875 0.078125 2.40625 0.21875 2.984375 0.21875 C 4.34375 0.21875 5.515625 -1.109375 5.515625 -2.34375 C 5.515625 -3.03125 5.171875 -3.375 5.03125 -3.515625 C 4.796875 -3.734375 4.640625 -3.78125 3.765625 -4 C 3.53125 -4.0625 3.1875 -4.171875 3.09375 -4.1875 C 2.828125 -4.28125 2.484375 -4.5625 2.484375 -5.09375 C 2.484375 -5.90625 3.28125 -6.75 4.234375 -6.75 C 5.046875 -6.75 5.65625 -6.3125 5.65625 -5.203125 C 5.65625 -4.890625 5.625 -4.703125 5.625 -4.640625 C 5.625 -4.640625 5.625 -4.546875 5.734375 -4.546875 C 5.84375 -4.546875 5.859375 -4.578125 5.890625 -4.75 Z M 6.4375 -6.921875 "
           style="stroke:none;" />
      </symbol>
    </g>
    <g
       id="g9740">
      <symbol
         id="symbol6527"
         overflow="visible">
        <path
           id="path5637"
           d=""
           style="stroke:none;" />
      </symbol>
      <symbol
         id="symbol9194"
         overflow="visible">
        <path
           id="path7472"
           d="M 1.59375 -0.78125 C 1.5 -0.390625 1.46875 -0.3125 0.6875 -0.3125 C 0.515625 -0.3125 0.421875 -0.3125 0.421875 -0.109375 C 0.421875 0 0.515625 0 0.6875 0 L 4.25 0 C 5.828125 0 7 -1.171875 7 -2.15625 C 7 -2.875 6.421875 -3.453125 5.453125 -3.5625 C 6.484375 -3.75 7.53125 -4.484375 7.53125 -5.4375 C 7.53125 -6.171875 6.875 -6.8125 5.6875 -6.8125 L 2.328125 -6.8125 C 2.140625 -6.8125 2.046875 -6.8125 2.046875 -6.609375 C 2.046875 -6.5 2.140625 -6.5 2.328125 -6.5 C 2.34375 -6.5 2.53125 -6.5 2.703125 -6.484375 C 2.875 -6.453125 2.96875 -6.453125 2.96875 -6.3125 C 2.96875 -6.28125 2.953125 -6.25 2.9375 -6.125 Z M 3.09375 -3.65625 L 3.71875 -6.125 C 3.8125 -6.46875 3.828125 -6.5 4.25 -6.5 L 5.546875 -6.5 C 6.421875 -6.5 6.625 -5.90625 6.625 -5.46875 C 6.625 -4.59375 5.765625 -3.65625 4.5625 -3.65625 Z M 2.65625 -0.3125 C 2.515625 -0.3125 2.5 -0.3125 2.4375 -0.3125 C 2.328125 -0.328125 2.296875 -0.34375 2.296875 -0.421875 C 2.296875 -0.453125 2.296875 -0.46875 2.359375 -0.640625 L 3.046875 -3.421875 L 4.921875 -3.421875 C 5.875 -3.421875 6.078125 -2.6875 6.078125 -2.265625 C 6.078125 -1.28125 5.1875 -0.3125 4 -0.3125 Z M 2.65625 -0.3125 "
           style="stroke:none;" />
      </symbol>
      <symbol
         id="symbol5476"
         overflow="visible">
        <path
           id="path7976"
           d="M 7.375 -4.34375 C 7.375 -5.953125 6.3125 -7.03125 4.828125 -7.03125 C 2.6875 -7.03125 0.484375 -4.765625 0.484375 -2.4375 C 0.484375 -0.78125 1.609375 0.21875 3.046875 0.21875 C 5.15625 0.21875 7.375 -1.96875 7.375 -4.34375 Z M 3.09375 -0.046875 C 2.109375 -0.046875 1.421875 -0.84375 1.421875 -2.15625 C 1.421875 -2.609375 1.5625 -4.0625 2.328125 -5.21875 C 3.015625 -6.265625 3.984375 -6.78125 4.78125 -6.78125 C 5.59375 -6.78125 6.484375 -6.21875 6.484375 -4.734375 C 6.484375 -4.015625 6.21875 -2.46875 5.234375 -1.234375 C 4.75 -0.625 3.9375 -0.046875 3.09375 -0.046875 Z M 3.09375 -0.046875 "
           style="stroke:none;" />
      </symbol>
      <symbol
         id="symbol8758"
         overflow="visible">
        <path
           id="path3234"
           d="M 3.734375 -6.046875 C 3.8125 -6.40625 3.84375 -6.5 4.640625 -6.5 C 4.875 -6.5 4.953125 -6.5 4.953125 -6.6875 C 4.953125 -6.8125 4.84375 -6.8125 4.8125 -6.8125 C 4.515625 -6.8125 3.78125 -6.78125 3.484375 -6.78125 C 3.1875 -6.78125 2.46875 -6.8125 2.15625 -6.8125 C 2.09375 -6.8125 1.96875 -6.8125 1.96875 -6.609375 C 1.96875 -6.5 2.046875 -6.5 2.25 -6.5 C 2.65625 -6.5 2.9375 -6.5 2.9375 -6.3125 C 2.9375 -6.265625 2.9375 -6.234375 2.90625 -6.15625 L 1.5625 -0.78125 C 1.46875 -0.40625 1.453125 -0.3125 0.65625 -0.3125 C 0.421875 -0.3125 0.34375 -0.3125 0.34375 -0.109375 C 0.34375 0 0.453125 0 0.484375 0 C 0.78125 0 1.5 -0.03125 1.796875 -0.03125 C 2.09375 -0.03125 2.828125 0 3.125 0 C 3.203125 0 3.328125 0 3.328125 -0.1875 C 3.328125 -0.3125 3.25 -0.3125 3.03125 -0.3125 C 2.84375 -0.3125 2.796875 -0.3125 2.609375 -0.328125 C 2.390625 -0.34375 2.359375 -0.390625 2.359375 -0.5 C 2.359375 -0.578125 2.375 -0.65625 2.390625 -0.734375 Z M 3.734375 -6.046875 "
           style="stroke:none;" />
      </symbol>
      <symbol
         id="symbol6421"
         overflow="visible">
        <path
           id="path6670"
           d=""
           style="stroke:none;" />
      </symbol>
      <symbol
         id="symbol612"
         overflow="visible">
        <path
           id="path4731"
           d="M 6.5625 -2.296875 C 6.734375 -2.296875 6.921875 -2.296875 6.921875 -2.5 C 6.921875 -2.6875 6.734375 -2.6875 6.5625 -2.6875 L 1.171875 -2.6875 C 1 -2.6875 0.828125 -2.6875 0.828125 -2.5 C 0.828125 -2.296875 1 -2.296875 1.171875 -2.296875 Z M 6.5625 -2.296875 "
           style="stroke:none;" />
      </symbol>
    </g>
  </defs>
  <sodipodi:namedview
     inkscape:window-maximized="0"
     inkscape:window-y="0"
     inkscape:window-x="3"
     inkscape:window-height="768"
     inkscape:window-width="1261"
     showgrid="false"
     inkscape:document-rotation="0"
     inkscape:current-layer="layer1"
     inkscape:document-units="mm"
     inkscape:cy="440.51948"
     inkscape:cx="397.14286"
     inkscape:zoom="0.35"
     inkscape:pageshadow="2"
     inkscape:pageopacity="0.0"
     borderopacity="1.0"
     bordercolor="#666666"
     pagecolor="#ffffff"
     id="base" />
  <metadata
     id="metadata5">
    <rdf:RDF>
      <cc:Work
         rdf:about="">
        <dc:format>image/svg+xml</dc:format>
        <dc:type
           rdf:resource="http://purl.org/dc/dcmitype/StillImage" />
        <dc:title></dc:title>
      </cc:Work>
    </rdf:RDF>
  </metadata>
  <g
     id="layer1"
     inkscape:groupmode="layer"
     inkscape:label="Layer 1">
    <path
       id="path11056"
       d="M 96.092464,171.92525 125.91581,118.45318"
       style="fill:none;stroke:#ff00ff;stroke-width:1;stroke-linecap:butt;stroke-linejoin:miter;stroke-opacity:1;stroke-miterlimit:4;stroke-dasharray:none" />
    <path
       id="path10231"
       d="M 98.376434,235.55651 96.092464,171.92525 77.587466,125.50433"
       style="fill:none;stroke:#ff00ff;stroke-width:1;stroke-linecap:butt;stroke-linejoin:miter;stroke-opacity:1;stroke-miterlimit:4;stroke-dasharray:none" />
    <path
       id="path11060"
       d="M 68.163865,113.43821 115.43359,77.125252"
       style="fill:none;stroke:#fd00ff;stroke-width:1;stroke-linecap:butt;stroke-linejoin:miter;stroke-opacity:1;stroke-miterlimit:4;stroke-dasharray:none" />
    <path
       id="path11062"
       d="M 68.163865,113.43821 38.763299,64.850345"
       style="fill:none;stroke:#ff00ff;stroke-width:1;stroke-linecap:butt;stroke-linejoin:miter;stroke-opacity:1;stroke-miterlimit:4;stroke-dasharray:none" />
    <g
       transform="matrix(0,0.59531248,-0.59531248,0,111.48515,235.33327)"
       id="g7260"
       style="overflow:visible">
      <g
         id="Layer_1"
         i:layer="yes"
         i:dimmedPercent="50"
         i:rgbTrio="#4F008000FFFF">
        <g
           id="g7233">
          <rect
             x="0.375"
             y="0.375"
             i:knockout="Off"
             fill="#302b33"
             width="56.693001"
             height="12.756"
             id="rect7202" />
          <rect
             x="0.375"
             y="32.973"
             i:knockout="Off"
             fill="#302b33"
             width="56.693001"
             height="12.756"
             id="rect7204" />
          <linearGradient
             id="XMLID_2_"
             gradientUnits="userSpaceOnUse"
             x1="28.721701"
             y1="32.972698"
             x2="28.721701"
             y2="13.1309">
            <stop
               offset="0"
               style="stop-color:#FFFFFF"
               id="stop7206" />
            <stop
               offset="0.0051"
               style="stop-color:#FEFCFC"
               id="stop7208" />
            <stop
               offset="0.1497"
               style="stop-color:#E6A4A4"
               id="stop7210" />
            <stop
               offset="0.277"
               style="stop-color:#D35E5E"
               id="stop7212" />
            <stop
               offset="0.3823"
               style="stop-color:#C62B2B"
               id="stop7214" />
            <stop
               offset="0.4615"
               style="stop-color:#BD0C0C"
               id="stop7216" />
            <stop
               offset="0.5056"
               style="stop-color:#BA0000"
               id="stop7218" />
            <stop
               offset="0.7077"
               style="stop-color:#D86E6E"
               id="stop7220" />
            <stop
               offset="0.9099"
               style="stop-color:#F4D6D6"
               id="stop7222" />
            <stop
               offset="1"
               style="stop-color:#FFFFFF"
               id="stop7224" />
            <a:midPointStop
               offset="0"
               style="stop-color:#FFFFFF" />
            <a:midPointStop
               offset="0.4222"
               style="stop-color:#FFFFFF" />
            <a:midPointStop
               offset="0.5056"
               style="stop-color:#BA0000" />
            <a:midPointStop
               offset="0.4773"
               style="stop-color:#BA0000" />
            <a:midPointStop
               offset="1"
               style="stop-color:#FFFFFF" />
          </linearGradient>
          <rect
             style="fill:url(#XMLID_2_)"
             x="0.375"
             y="13.131"
             i:knockout="Off"
             fill="url(#XMLID_2_)"
             stroke="#000000"
             stroke-width="0.75"
             width="56.693001"
             height="19.841999"
             id="rect7227" />
          <rect
             x="57.068001"
             y="3.2090001"
             i:knockout="Off"
             stroke="#000000"
             stroke-width="0.75"
             width="4.2519999"
             height="39.686001"
             id="rect7229" />
          <rect
             x="0.375"
             y="0.375"
             i:knockout="Off"
             fill="none"
             stroke="#000000"
             stroke-width="0.75"
             width="56.693001"
             height="45.354"
             id="rect7231" />
        </g>
      </g>
    </g>
    <g
       transform="matrix(0.66972652,1.1600004,-1.1600004,0.66972652,74.492905,91.530271)"
       id="g7361"
       style="overflow:visible">
      <g
         id="Layer_1-3"
         i:layer="yes"
         i:dimmedPercent="50"
         i:rgbTrio="#4F008000FFFF">
        <g
           id="g7345">
          <linearGradient
             id="XMLID_2_-6"
             gradientUnits="userSpaceOnUse"
             x1="44.003899"
             y1="105.2021"
             x2="72.350098"
             y2="76.856003"
             gradientTransform="matrix(0.8,0,0,0.8,-34.8284,-61.1108)">
            <stop
               offset="0"
               style="stop-color:#FFFFFF"
               id="stop7336" />
            <stop
               offset="1"
               style="stop-color:#89A4B6"
               id="stop7338" />
            <a:midPointStop
               offset="0"
               style="stop-color:#FFFFFF" />
            <a:midPointStop
               offset="0.5"
               style="stop-color:#FFFFFF" />
            <a:midPointStop
               offset="1"
               style="stop-color:#89A4B6" />
          </linearGradient>
          <rect
             x="0.375"
             y="0.375"
             i:knockout="Off"
             fill="url(#XMLID_2_)"
             stroke="#000000"
             stroke-width="0.75"
             width="22.677"
             height="22.677"
             id="rect7341"
             style="fill:url(#XMLID_2_-6)" />
          <line
             i:knockout="Off"
             fill="none"
             stroke="#000000"
             stroke-width="0.75"
             x1="0.375"
             y1="0.375"
             x2="23.052"
             y2="23.052"
             id="line7343" />
        </g>
      </g>
    </g>
    <g
       transform="matrix(0.94713636,-0.94713636,0.94713636,0.94713636,92.970582,76.873339)"
       id="g10078"
       style="overflow:visible">
      <g
         id="Layer_1-7"
         i:layer="yes"
         i:dimmedPercent="50"
         i:rgbTrio="#4F008000FFFF">
        <g
           id="g10062">
          <radialGradient
             id="XMLID_2_-5"
             cx="8.8794003"
             cy="7.4608998"
             r="17.067101"
             fx="8.8794003"
             fy="7.4608998"
             gradientUnits="userSpaceOnUse">
            <stop
               offset="0"
               style="stop-color:#FEDE58"
               id="stop10053" />
            <stop
               offset="0.6854"
               style="stop-color:#BA0000"
               id="stop10055" />
            <a:midPointStop
               offset="0"
               style="stop-color:#FEDE58" />
            <a:midPointStop
               offset="0.5"
               style="stop-color:#FEDE58" />
            <a:midPointStop
               offset="0.6854"
               style="stop-color:#BA0000" />
          </radialGradient>
          <path
             i:knockout="Off"
             fill="url(#XMLID_2_)"
             stroke="#000000"
             stroke-width="0.75"
             d="m 6.044,1.792 c -0.986,0 -1.936,0.148 -2.835,0.417 v 19.01 c 0.899,0.268 1.849,0.416 2.835,0.416 5.479,0 9.921,-4.441 9.921,-9.921 0,-5.48 -4.442,-9.922 -9.921,-9.922 z"
             id="path10058"
             style="fill:url(#radialGradient11058)" />
          <rect
             x="0.375"
             y="0.375"
             i:knockout="Off"
             stroke="#000000"
             stroke-width="0.75"
             width="2.835"
             height="22.677999"
             id="rect10060" />
        </g>
      </g>
    </g>
    <g
       style="overflow:visible"
       id="g10094"
       transform="matrix(-0.94713636,-0.94713636,0.94713636,-0.94713636,36.802827,92.894306)">
      <g
         i:rgbTrio="#4F008000FFFF"
         i:dimmedPercent="50"
         i:layer="yes"
         id="g10092">
        <g
           id="g10090">
          <radialGradient
             gradientUnits="userSpaceOnUse"
             fy="7.4608998"
             fx="8.8794003"
             r="17.067101"
             cy="7.4608998"
             cx="8.8794003"
             id="radialGradient10084">
            <stop
               id="stop10080"
               style="stop-color:#FEDE58"
               offset="0" />
            <stop
               id="stop10082"
               style="stop-color:#BA0000"
               offset="0.6854" />
            <a:midPointStop
               style="stop-color:#FEDE58"
               offset="0" />
            <a:midPointStop
               style="stop-color:#FEDE58"
               offset="0.5" />
            <a:midPointStop
               style="stop-color:#BA0000"
               offset="0.6854" />
          </radialGradient>
          <path
             style="fill:url(#radialGradient10096)"
             id="path10086"
             d="m 6.044,1.792 c -0.986,0 -1.936,0.148 -2.835,0.417 v 19.01 c 0.899,0.268 1.849,0.416 2.835,0.416 5.479,0 9.921,-4.441 9.921,-9.921 0,-5.48 -4.442,-9.922 -9.921,-9.922 z"
             stroke-width="0.75"
             stroke="#000000"
             fill="url(#XMLID_2_)"
             i:knockout="Off" />
          <rect
             id="rect10088"
             height="22.677999"
             width="2.835"
             stroke-width="0.75"
             stroke="#000000"
             i:knockout="Off"
             y="0.375"
             x="0.375" />
        </g>
      </g>
    </g>
    <g
       transform="matrix(0.94713637,-0.94713637,0.94713637,0.94713637,114.93961,107.9168)"
       id="g10112"
       style="overflow:visible">
      <g
         id="g10110"
         i:layer="yes"
         i:dimmedPercent="50"
         i:rgbTrio="#4F008000FFFF">
        <g
           id="g10108">
          <radialGradient
             id="radialGradient10102"
             cx="8.8794003"
             cy="7.4608998"
             r="17.067101"
             fx="8.8794003"
             fy="7.4608998"
             gradientUnits="userSpaceOnUse">
            <stop
               offset="0"
               style="stop-color:#FEDE58"
               id="stop10098" />
            <stop
               offset="0.6854"
               style="stop-color:#BA0000"
               id="stop10100" />
            <a:midPointStop
               offset="0"
               style="stop-color:#FEDE58" />
            <a:midPointStop
               offset="0.5"
               style="stop-color:#FEDE58" />
            <a:midPointStop
               offset="0.6854"
               style="stop-color:#BA0000" />
          </radialGradient>
          <path
             i:knockout="Off"
             fill="url(#XMLID_2_)"
             stroke="#000000"
             stroke-width="0.75"
             d="m 6.044,1.792 c -0.986,0 -1.936,0.148 -2.835,0.417 v 19.01 c 0.899,0.268 1.849,0.416 2.835,0.416 5.479,0 9.921,-4.441 9.921,-9.921 0,-5.48 -4.442,-9.922 -9.921,-9.922 z"
             id="path10104"
             style="fill:url(#radialGradient10114)" />
          <rect
             x="0.375"
             y="0.375"
             i:knockout="Off"
             stroke="#000000"
             stroke-width="0.75"
             width="2.835"
             height="22.677999"
             id="rect10106" />
        </g>
      </g>
    </g>
    <g
       transform="matrix(1.3394531,0,0,1.3394531,81.238875,158.91334)"
       id="g10229"
       style="overflow:visible">
      <g
         id="Layer_1-35"
         i:layer="yes"
         i:dimmedPercent="50"
         i:rgbTrio="#4F008000FFFF">
        <linearGradient
           id="XMLID_2_-62"
           gradientUnits="userSpaceOnUse"
           x1="1.7925"
           y1="18.8008"
           x2="26.5749"
           y2="-5.9816999">
          <stop
             offset="0"
             style="stop-color:#FFFFFF"
             id="stop10210" />
          <stop
             offset="1"
             style="stop-color:#89A4B6"
             id="stop10212" />
          <a:midPointStop
             offset="0"
             style="stop-color:#FFFFFF" />
          <a:midPointStop
             offset="0.5"
             style="stop-color:#FFFFFF" />
          <a:midPointStop
             offset="1"
             style="stop-color:#89A4B6" />
        </linearGradient>
        <polygon
           i:knockout="Off"
           fill="url(#XMLID_2_)"
           stroke="#000000"
           stroke-width="0.75"
           points="23.051,17.383 23.051,0.375 21.334,0.375 0.375,0.375 0.375,17.383 21.334,17.383 "
           id="polygon10215"
           style="fill:url(#XMLID_2_-62)" />
      </g>
    </g>
    <g
       inkscape:label=""
       transform="rotate(-90,173.17359,185.09907)"
       id="g11159">
      <g
         id="g1004">
        <g
           id="g6840"
           style="fill:#000000;fill-opacity:1">
          <use
             height="100%"
             width="100%"
             id="use6278"
             y="81.962997"
             x="91.925003"
             xlink:href="#symbol187" />
        </g>
        <g
           id="g7548"
           style="fill:#000000;fill-opacity:1">
          <use
             height="100%"
             width="100%"
             id="use53"
             y="81.962997"
             x="99.947884"
             xlink:href="#symbol9570" />
          <use
             height="100%"
             width="100%"
             id="use2059"
             y="81.962997"
             x="103.38"
             xlink:href="#symbol7401" />
          <use
             height="100%"
             width="100%"
             id="use4826"
             y="81.962997"
             x="108.20887"
             xlink:href="#symbol4461" />
        </g>
        <g
           id="g547"
           style="fill:#000000;fill-opacity:1">
          <use
             height="100%"
             width="100%"
             id="use6680"
             y="81.962997"
             x="111.38096"
             xlink:href="#symbol2241" />
          <use
             height="100%"
             width="100%"
             id="use7259"
             y="81.962997"
             x="116.01955"
             xlink:href="#symbol1310" />
          <use
             height="100%"
             width="100%"
             id="use9495"
             y="81.962997"
             x="119.61704"
             xlink:href="#symbol3706" />
        </g>
      </g>
    </g>
    <g
       inkscape:label=""
       transform="rotate(-90,166.2798,189.47522)"
       id="g11308">
      <g
         id="g5019">
        <g
           id="g3050"
           style="fill:#000000;fill-opacity:1">
          <use
             height="100%"
             width="100%"
             id="use4902"
             y="81.962997"
             x="91.925003"
             xlink:href="#symbol8611" />
          <use
             height="100%"
             width="100%"
             id="use7917"
             y="81.962997"
             x="98.705544"
             xlink:href="#symbol6891" />
          <use
             height="100%"
             width="100%"
             id="use3226"
             y="81.962997"
             x="103.97178"
             xlink:href="#symbol2496" />
          <use
             height="100%"
             width="100%"
             id="use5612"
             y="81.962997"
             x="108.64224"
             xlink:href="#symbol8673" />
          <use
             height="100%"
             width="100%"
             id="use3051"
             y="81.962997"
             x="113.28083"
             xlink:href="#symbol8531" />
        </g>
      </g>
    </g>
    <g
       inkscape:label=""
       transform="rotate(-90,131.36453,77.031075)"
       id="g11464">
      <g
         id="g9266">
        <g
           id="g6857"
           style="fill:#000000;fill-opacity:1">
          <use
             height="100%"
             width="100%"
             id="use5969"
             y="81.962997"
             x="91.925003"
             xlink:href="#symbol2939" />
        </g>
        <g
           id="g959"
           style="fill:#000000;fill-opacity:1">
          <use
             height="100%"
             width="100%"
             id="use5089"
             y="83.457001"
             x="100.173"
             xlink:href="#symbol7584" />
        </g>
      </g>
    </g>
    <g
       inkscape:label=""
       transform="rotate(-90,104.73922,71.576074)"
       id="g11629">
      <g
         id="g3410">
        <g
           id="g5818"
           style="fill:#000000;fill-opacity:1">
          <use
             height="100%"
             width="100%"
             id="use5323"
             y="81.962997"
             x="91.925003"
             xlink:href="#symbol4116" />
        </g>
        <g
           id="g1601"
           style="fill:#000000;fill-opacity:1">
          <use
             height="100%"
             width="100%"
             id="use7874"
             y="83.457001"
             x="100.173"
             xlink:href="#symbol270" />
        </g>
      </g>
    </g>
    <g
       inkscape:label=""
       transform="rotate(-90,64.343647,105.67218)"
       id="g11815">
      <g
         id="g8271">
        <g
           id="g4042"
           style="fill:#000000;fill-opacity:1">
          <use
             height="100%"
             width="100%"
             id="use7615"
             y="81.962997"
             x="91.925003"
             xlink:href="#symbol1568" />
        </g>
        <g
           id="g674"
           style="fill:#000000;fill-opacity:1">
          <use
             height="100%"
             width="100%"
             id="use4846"
             y="78.347"
             x="100.45"
             xlink:href="#symbol2657" />
        </g>
        <g
           id="g7142"
           style="fill:#000000;fill-opacity:1">
          <use
             height="100%"
             width="100%"
             id="use5003"
             y="84.434998"
             x="100.173"
             xlink:href="#symbol1717" />
        </g>
      </g>
    </g>
    <g
       inkscape:label=""
       transform="rotate(-90,99.354829,129.44144)"
       id="g12020">
      <g
         id="g7738">
        <g
           id="g1868"
           style="fill:#000000;fill-opacity:1">
          <use
             height="100%"
             width="100%"
             id="use7876"
             y="81.962997"
             x="91.925003"
             xlink:href="#symbol4829" />
        </g>
        <g
           id="g4243"
           style="fill:#000000;fill-opacity:1">
          <use
             height="100%"
             width="100%"
             id="use376"
             y="81.962997"
             x="99.979759"
             xlink:href="#symbol7893" />
        </g>
      </g>
    </g>
    <g
       inkscape:label=""
       transform="matrix(0,-0.5625,0.5625,0,28.338399,234.63479)"
       id="g12243">
      <g
         id="g6583">
        <g
           id="g7641"
           style="fill:#000000;fill-opacity:1">
          <use
             height="100%"
             width="100%"
             id="use1455"
             y="81.962997"
             x="91.925003"
             xlink:href="#symbol9194" />
        </g>
        <g
           id="g887"
           style="fill:#000000;fill-opacity:1">
          <use
             height="100%"
             width="100%"
             id="use2844"
             y="81.962997"
             x="99.979759"
             xlink:href="#symbol9194" />
        </g>
        <g
           id="g9088"
           style="fill:#000000;fill-opacity:1">
          <use
             height="100%"
             width="100%"
             id="use8000"
             y="81.962997"
             x="108.03452"
             xlink:href="#symbol5476" />
        </g>
        <g
           id="g6658"
           style="fill:#000000;fill-opacity:1">
          <use
             height="100%"
             width="100%"
             id="use5519"
             y="81.962997"
             x="118.128"
             xlink:href="#symbol612" />
        </g>
        <g
           id="g9127"
           style="fill:#000000;fill-opacity:1">
          <use
             height="100%"
             width="100%"
             id="use12239"
             y="81.962997"
             x="128.091"
             xlink:href="#symbol8758" />
        </g>
      </g>
    </g>
  </g>
</svg>
