<?xml version="1.0" encoding="iso-8859-1"?>
<!-- Generator: Adobe Illustrator 19.0.0, SVG Export Plug-In . SVG Version: 6.00 Build 0)  -->
<svg version="1.1" id="Layer_1" xmlns="http://www.w3.org/2000/svg" xmlns:xlink="http://www.w3.org/1999/xlink" x="0px" y="0px"
	 viewBox="0 0 511.999 511.999" style="enable-background:new 0 0 511.999 511.999;" xml:space="preserve">
<g>
	<g>
		<path d="M507.124,51.877c-6.5-6.502-17.03-6.502-23.529-0.001l-30.009,30.009c-6.283,6.283-17.247,6.3-23.53-0.006
			c-19.457-19.457-51.145-19.451-70.602,0.006l-11.762,11.761l-0.002-0.002c-17.925-17.925-46.116-19.118-65.676-4.015
			c19.631,10.141,37.841,23.255,53.911,39.326c16.076,16.071,29.19,34.284,39.33,53.922c6.75-8.7,10.591-19.213,10.591-30.402
			c0-13.325-5.19-25.87-14.626-35.295l11.765-11.765c6.5-6.467,17.052-6.49,23.53,0c9.425,9.425,21.971,14.626,35.306,14.626
			c13.325,0,25.87-5.19,35.295-14.626l30.009-30.009C513.624,68.913,513.624,58.372,507.124,51.877z"/>
	</g>
</g>
<g>
	<g>
		<path d="M312.383,152.486c-71.507-71.53-187.318-71.56-258.855,0c-71.371,71.371-71.371,187.484,0,258.855
			c71.507,71.53,187.318,71.558,258.855,0C383.913,339.833,383.943,224.023,312.383,152.486z M182.945,182.028
			c-26.64,0-51.708,10.4-70.591,29.282c-18.796,18.808-29.153,43.888-29.153,70.603c0,9.186-7.454,16.64-16.64,16.64
			s-16.64-7.454-16.64-16.64c0-35.61,13.813-69.031,38.903-94.132c25.167-25.167,58.598-39.033,94.121-39.033
			c9.186,0,16.64,7.454,16.64,16.64C199.585,174.574,192.131,182.028,182.945,182.028z"/>
	</g>
</g>
<g>
</g>
<g>
</g>
<g>
</g>
<g>
</g>
<g>
</g>
<g>
</g>
<g>
</g>
<g>
</g>
<g>
</g>
<g>
</g>
<g>
</g>
<g>
</g>
<g>
</g>
<g>
</g>
<g>
</g>
</svg>
